<svg xmlns="http://www.w3.org/2000/svg" fill="none" viewBox="-0.75 -0.75 16 16" stroke="#1d9bf0" aria-hidden="true" id="Gif--Streamline-Heroicons-Outline" height="16" width="16"><desc>Gif Streamline Icon: https://streamlinehq.com</desc><path stroke-linecap="round" stroke-linejoin="round" d="M7.703124999999999 4.984375v4.53125m3.625 -4.53125h-1.8125V7.25m0 0v2.265625m0 -2.265625H10.875M5.890625 5.64775c-0.6222916666666667 -0.8845 -1.6300416666666666 -0.8845 -2.2523333333333335 0 -0.6222916666666667 0.8851041666666667 -0.6222916666666667 2.32 0 3.2045 0.6222916666666667 0.8845 1.6306458333333331 0.8845 2.2523333333333335 0V7.25h-0.90625M2.71875 11.78125h9.0625a1.359375 1.359375 0 0 0 1.359375 -1.359375V4.078125A1.359375 1.359375 0 0 0 11.78125 2.71875h-9.0625a1.359375 1.359375 0 0 0 -1.359375 1.359375v6.34375A1.359375 1.359375 0 0 0 2.71875 11.78125Z" stroke-width="1.5"></path></svg>